<?xml version="1.0" encoding="UTF-8"?>
<svg width="71px" height="89px" viewBox="0 0 71 89" version="1.1" xmlns="http://www.w3.org/2000/svg" xmlns:xlink="http://www.w3.org/1999/xlink">
    <!-- Generator: Sketch 52.6 (67491) - http://www.bohemiancoding.com/sketch -->
    <title>mineral-ui</title>
    <desc>Created with Sketch.</desc>
    <g id="Page-1" stroke="none" stroke-width="1" fill="none" fill-rule="evenodd">
        <g id="mineral-ui" transform="translate(0.000000, -1.000000)">
            <polygon id="Path" fill="#FCB011" points="15.45 63.37 0.44 63.37 8.63 74.81"></polygon>
            <path d="M47.35,9.85 L43.35,1.34 C43.2890015,1.18071656 43.1609842,1.05635697 43,1 C42.8330229,0.950394874 42.6525294,0.979863204 42.51,1.08 L25.6,12.56 C25.5197206,12.6125653 25.4542952,12.6848776 25.41,12.77 L0,60.1 L17.39,60.1 L47.35,9.85 Z" id="Path" fill="#FCB011"></path>
            <path d="M58.88,34.55 L49,13.42 L10.7,77.7 L18.7,88.95 C18.8122524,89.1023484 18.9907698,89.1916071 19.18,89.19 L26.3,89.19 L58.88,34.55 Z" id="Path" fill="#FF6F3E"></path>
            <path d="M30.09,89.2 L51.42,89.2 C51.5989008,89.2081188 51.7718059,89.1345421 51.89,89 L70.19,63.41 L45.5,63.41 L30.09,89.2 Z" id="Path" fill="#4B8398"></path>
            <polygon id="Path" fill="#4B8398" points="47.44 60.1 70.8 60.1 60.55 38.12"></polygon>
        </g>
    </g>
</svg>