<svg width="153" height="163"
    xmlns="http://www.w3.org/2000/svg">
    <g fill="none" fill-rule="evenodd">
        <path d="M12.5 138.8l53.6 23.1L7.7 79.1l4.8 59.7zM152.2 8.4L140 24.9l-37.8 11.2-1.8 11.6 34.5-9-1 7-34.7 9.5-.6 7.2 34-8.5-.7 7.2-31 8.1c-3.2.8-6.3 2.7-9.3 5.6L76.3 88.3 60.7 73.8a22 22 0 00-8.1-4.7l-30.2-9.2-.9-7.3 33 9.7-1.3-8.1-33.7-10.3-1-6.6 34 10L51 35.7 13.4 24.3.5 7.5l7 58.4 67.7 96.3 69-94.5 8-59.3zM94.5 112.9L83.9 91.5l44.3-13.2-33.7 34.6zM23.4 76.7L67.9 91l-10.5 22-34-36.2zM138 140l5.8-60L85 161.7l53-21.6z" fill="#ff5722"/>
        <path d="M62.5 65.6L76 79l13-12.4 10.9-65L85 27.9H68.8L53.2.6l9.3 65zm21.7-26.8l-7.5 23.8-7.9-23.8h15.4z" fill="#ff5722"/>
        <path d="M138.1 140l-53 21.6 58.8-81.5L138 140zM84.2 38.8H68.8l7.9 23.8 7.5-23.8zM62.5 65.6L53.2.6l15.6 27.3h16.3L99.9 1.5 89 66.5 76 78.9 62.5 65.6zM23.4 76.7l34 36.2 10.5-22-44.5-14.2zM66 162L7.7 79.1l4.8 59.7 53.6 23.1zM84 91.5l44.3-13.2-33.7 34.6-10.6-21.4zm56-66.6l-37.8 11.2-1.8 11.6 34.5-9-1 7-34.7 9.5-.6 7.2 34-8.5-.7 7.2-31 8.1c-3.2.8-6.3 2.7-9.3 5.6L76.3 88.3 60.7 73.8a22 22 0 00-8.1-4.7l-30.2-9.2-.9-7.3 33 9.7-1.3-8.1-33.7-10.3-1-6.6 34 10L51 35.7 13.4 24.3.5 7.5l7 58.4 67.7 96.3 69-94.5 8-59.3L140 24.9z"/>
    </g>
</svg>